<svg xmlns="http://www.w3.org/2000/svg" width="528" height="418"><circle stroke="#000" stroke-width="3" stroke-miterlimit="10" cx="50" cy="142" r="7" fill="none"/><circle stroke="#000" stroke-width="3" stroke-miterlimit="10" cx="70" cy="162" r="7" fill="none"/><circle stroke="#000" stroke-width="3" stroke-miterlimit="10" cx="70" cy="182" r="7" fill="none"/><circle stroke="#000" stroke-width="3" stroke-miterlimit="10" cx="50" cy="202" r="7" fill="none"/><circle stroke="#000" stroke-width="3" stroke-miterlimit="10" cx="50" cy="222" r="7" fill="none"/><circle stroke="#000" stroke-width="3" stroke-miterlimit="10" cx="31" cy="242" r="7" fill="none"/><line stroke="#000" stroke-width="3" stroke-miterlimit="10" x1="511" y1="182.5" x2="77" y2="182.5" fill="none"/><polyline stroke="#000" stroke-width="3" stroke-miterlimit="10" points="511,192.5 88,192.5 71.097,202.5 58,202.5" fill="none"/><polyline stroke="#000" stroke-width="3" stroke-miterlimit="10" points="511,202.5 99.907,202.5 66,222.5 56,222.5" fill="none"/><polyline stroke="#000" stroke-width="3" stroke-miterlimit="10" points="511,212.5 112,212.5 62.519,242.5 37,242.5" fill="none"/><polyline stroke="#000" stroke-width="3" stroke-miterlimit="10" points="511,172.5 104,172.5 87,162.5 78,162.5" fill="none"/><polyline stroke="#000" stroke-width="3" stroke-miterlimit="10" points="511,162.5 116,162.5 82,142.5 58,142.5" fill="none"/><path d="M342.069 222l-.721 1.931-.889 2.307c-.314.922-.818 1.926-1.38 3.063-.573 1.125-1.142 2.437-1.9 3.767-.754 1.33-1.627 2.738-2.542 4.266l-3.25 4.649c-1.245 1.562-2.591 3.189-4.034 4.859-3.018 3.204-6.439 6.613-10.55 9.634-1.98 1.62-4.225 2.976-6.475 4.45-1.121.745-2.345 1.339-3.543 2.011-1.208.653-2.415 1.344-3.705 1.889l-3.861 1.747c-1.327.512-2.683.983-4.04 1.48-.682.238-1.357.508-2.051.721l-2.103.598c-1.413.372-2.817.827-4.265 1.112l-4.362.862c-1.456.314-2.95.403-4.432.596l-2.23.252c-.744.091-1.495.08-2.242.125l-4.66.178-4.263-.172c-.724-.043-1.388-.027-2.16-.119l-2.289-.253c-1.51-.196-3.078-.284-4.525-.6l-4.362-.862c-1.448-.284-2.851-.744-4.266-1.108l-2.103-.598c-.694-.213-1.369-.483-2.051-.721-1.357-.497-2.713-.968-4.04-1.481l-3.863-1.745c-1.29-.545-2.497-1.237-3.705-1.89-1.198-.672-2.425-1.261-3.544-2.009-2.25-1.474-4.493-2.834-6.476-4.45-4.11-3.023-7.532-6.432-10.55-9.637-1.444-1.671-2.787-3.301-4.034-4.861l-3.248-4.652c-.913-1.53-1.788-2.936-2.541-4.267-.755-1.329-1.316-2.628-1.888-3.752-1.181-2.23-1.76-4.155-2.277-5.39l-.718-1.929 1.179 1.694c.77 1.098 1.803 2.755 3.348 4.699.769.973 1.541 2.095 2.515 3.217.994 1.109 2.007 2.341 3.113 3.631l3.778 3.873c1.415 1.273 2.856 2.645 4.415 4.002 3.211 2.616 6.712 5.392 10.754 7.792 1.958 1.292 4.106 2.384 6.262 3.546.53.306 1.098.55 1.664.802l1.693.78c1.134.52 2.262 1.079 3.466 1.491 4.68 1.974 9.76 3.294 14.927 4.422l3.932.661c.661.134 1.307.185 1.951.247l1.938.203 1.94.211c.638.079 1.399.061 2.094.096l4.264.138 3.867-.132c.671-.034 1.345-.011 2.012-.09l1.999-.211 1.996-.207c.666-.057 1.332-.116 1.986-.248l3.932-.662c5.169-1.12 10.247-2.451 14.93-4.418 1.204-.412 2.332-.971 3.466-1.492l1.695-.778c.566-.252 1.133-.496 1.664-.803 2.156-1.162 4.303-2.258 6.264-3.546 4.042-2.401 7.544-5.177 10.755-7.794 1.56-1.358 2.998-2.732 4.415-4.003l3.776-3.876c1.104-1.291 2.12-2.522 3.113-3.632.973-1.122 1.736-2.231 2.503-3.203 1.536-1.929 2.591-3.626 3.356-4.719l1.176-1.692zM195.931 152l.721-1.931.889-2.307c.314-.922.818-1.926 1.38-3.063.573-1.125 1.142-2.437 1.9-3.767.754-1.33 1.627-2.738 2.542-4.266l3.25-4.649c1.245-1.562 2.591-3.189 4.034-4.859 3.018-3.204 6.439-6.613 10.55-9.634 1.98-1.62 4.225-2.976 6.475-4.45 1.121-.745 2.345-1.339 3.542-2.011 1.208-.653 2.415-1.344 3.705-1.889l3.861-1.747c1.327-.512 2.683-.983 4.04-1.48.682-.238 1.357-.508 2.051-.721l2.103-.598c1.413-.372 2.817-.827 4.265-1.112l4.362-.862c1.456-.314 2.95-.403 4.432-.596l2.23-.252c.744-.092 1.495-.08 2.242-.125l4.66-.178 4.263.172c.724.043 1.388.027 2.16.119l2.289.253c1.51.196 3.078.284 4.525.6l4.362.862c1.448.283 2.851.744 4.266 1.108l2.103.598c.694.213 1.369.483 2.051.721 1.357.497 2.713.968 4.04 1.481l3.863 1.745c1.29.545 2.497 1.237 3.705 1.89 1.198.672 2.425 1.261 3.544 2.009 2.25 1.474 4.493 2.834 6.476 4.45 4.11 3.022 7.532 6.432 10.551 9.637 1.444 1.671 2.787 3.3 4.034 4.861l3.248 4.652c.913 1.53 1.788 2.936 2.541 4.267.755 1.329 1.316 2.628 1.888 3.752 1.181 2.23 1.76 4.155 2.277 5.39l.718 1.929-1.179-1.694c-.77-1.098-1.803-2.755-3.348-4.699-.769-.973-1.541-2.095-2.515-3.217-.994-1.109-2.007-2.341-3.113-3.631l-3.778-3.873c-1.415-1.273-2.856-2.645-4.415-4.002-3.211-2.616-6.712-5.392-10.754-7.791-1.958-1.292-4.106-2.384-6.262-3.546-.53-.306-1.098-.55-1.664-.802l-1.693-.78c-1.134-.52-2.262-1.079-3.466-1.491-4.68-1.974-9.76-3.293-14.927-4.422l-3.932-.661c-.661-.134-1.307-.185-1.951-.247l-1.938-.203-1.94-.211c-.638-.079-1.399-.061-2.094-.096l-4.264-.138-3.867.132c-.671.034-1.345.011-2.012.09l-1.999.211-1.996.207c-.666.057-1.332.116-1.986.248l-3.932.662c-5.169 1.12-10.247 2.451-14.93 4.418-1.204.412-2.332.971-3.466 1.492l-1.695.778c-.566.252-1.133.496-1.664.803-2.156 1.162-4.303 2.258-6.264 3.546-4.042 2.401-7.544 5.177-10.755 7.794-1.56 1.358-2.998 2.732-4.415 4.003l-3.776 3.875c-1.104 1.291-2.12 2.522-3.113 3.632-.973 1.122-1.736 2.231-2.503 3.203-1.536 1.929-2.591 3.626-3.356 4.719l-1.176 1.692zM131.898 397.409l.868-.18c.573-.117 1.429-.287 2.503-.561 2.158-.541 5.347-1.4 9.153-3.046 3.807-1.631 8.223-4.093 12.662-7.721 4.45-3.623 8.807-8.46 13.048-14.208 4.289-5.719 8.451-12.37 13.76-19.046 2.668-3.32 5.653-6.645 9.184-9.626 3.514-2.987 7.57-5.622 12.036-7.58 4.463-1.974 9.276-3.249 14.193-3.957 4.984-.704 10-.696 14.949-.291 9.909.824 19.599 3.04 29.069 5.657 9.468 2.647 18.751 5.69 27.822 8.738 9.069 3.053 17.887 6.222 26.308 9.351 8.402 3.161 16.461 6.232 24.034 8.64 3.785 1.165 7.46 2.193 10.883 2.744 3.383.594 6.634.634 8.543-.034.22-.066.497-.198.611-.236l.58-.337.395-.24c.514-.313 1.076-.711 1.534-1.099.933-.798 1.66-1.687 2.225-2.703 1.149-2.018 1.542-4.657 1.614-7.324.06-2.677-.2-5.36-.441-7.883-.216-2.532-.433-4.924-.522-7.113-.195-4.386.3-7.966 1.07-10.243.376-1.144.745-1.984 1.034-2.53.286-.546.447-.816.447-.816l1.103.472-.197.835c-.117.551-.269 1.371-.343 2.445-.063 1.076-.065 2.401.098 3.954.155 1.555.512 3.329.969 5.326.896 4.026 2.675 8.755 3.63 15.116.212 1.6.372 3.323.262 5.185-.104 1.855-.428 3.866-1.193 5.879-.758 2.009-1.965 3.962-3.468 5.63-.765.84-1.546 1.575-2.46 2.31l-.692.531-.541.397c-.644.439-1.158.743-1.762 1.05-2.354 1.181-4.75 1.715-7.024 1.956-2.285.238-4.494.213-6.665.066-4.34-.33-8.556-1.117-12.771-2.137-8.427-2.018-16.834-4.938-25.371-8.151-8.514-3.27-17.095-6.976-25.817-10.618-8.719-3.641-17.616-7.144-26.637-10.081-9.009-2.923-18.147-5.409-27.164-6.552-4.5-.551-8.968-.786-13.244-.415-4.327.405-8.542 1.307-12.445 2.807-3.911 1.49-7.512 3.574-10.764 6.069-3.251 2.498-6.187 5.361-8.885 8.362-5.39 6.023-9.959 12.451-14.687 18.067-4.686 5.647-9.561 10.487-14.463 14.029-4.886 3.57-9.689 5.852-13.751 7.266-4.064 1.442-7.372 2.099-9.631 2.507-1.137.209-1.994.32-2.573.399l-.878.122-.198-1.182z"/></svg>