<?xml version="1.0" encoding="utf-8"?>
<!-- Generator: Adobe Illustrator 17.0.2, SVG Export Plug-In . SVG Version: 6.00 Build 0)  -->
<!DOCTYPE svg PUBLIC "-//W3C//DTD SVG 1.1//EN" "http://www.w3.org/Graphics/SVG/1.1/DTD/svg11.dtd">
<svg version="1.1" id="Layer_1" xmlns="http://www.w3.org/2000/svg" xmlns:xlink="http://www.w3.org/1999/xlink" x="0px" y="0px"
	 width="528px" height="418px" viewBox="0 0 528 418" enable-background="new 0 0 528 418" xml:space="preserve">
<circle fill="none" stroke="#000000" stroke-width="3" stroke-miterlimit="10" cx="50" cy="142" r="7"/>
<circle fill="none" stroke="#000000" stroke-width="3" stroke-miterlimit="10" cx="70" cy="162" r="7"/>
<circle fill="none" stroke="#000000" stroke-width="3" stroke-miterlimit="10" cx="70" cy="182" r="7"/>
<circle fill="none" stroke="#000000" stroke-width="3" stroke-miterlimit="10" cx="50" cy="202" r="7"/>
<circle fill="none" stroke="#000000" stroke-width="3" stroke-miterlimit="10" cx="50" cy="222" r="7"/>
<circle fill="none" stroke="#000000" stroke-width="3" stroke-miterlimit="10" cx="31" cy="242" r="7"/>
<line fill="none" stroke="#000000" stroke-width="3" stroke-miterlimit="10" x1="511" y1="182.5" x2="77" y2="182.5"/>
<polyline fill="none" stroke="#000000" stroke-width="3" stroke-miterlimit="10" points="511,192.5 88,192.5 71.097,202.5 58,202.5 
	"/>
<polyline fill="none" stroke="#000000" stroke-width="3" stroke-miterlimit="10" points="511,202.5 99.907,202.5 66,222.5 56,222.5 
	"/>
<polyline fill="none" stroke="#000000" stroke-width="3" stroke-miterlimit="10" points="511,212.5 112,212.5 62.519,242.5 
	37,242.5 "/>
<polyline fill="none" stroke="#000000" stroke-width="3" stroke-miterlimit="10" points="511,172.5 104,172.5 87,162.5 78,162.5 "/>
<polyline fill="none" stroke="#000000" stroke-width="3" stroke-miterlimit="10" points="511,162.5 116,162.5 82,142.5 58,142.5 "/>
<g>
	<path d="M342.069,222c0,0-0.251,0.672-0.721,1.931c-0.241,0.626-0.539,1.399-0.889,2.307c-0.314,0.922-0.818,1.926-1.38,3.063
		c-0.573,1.125-1.142,2.437-1.9,3.767c-0.754,1.33-1.627,2.738-2.542,4.266c-1.02,1.459-2.106,3.012-3.25,4.649
		c-1.245,1.562-2.591,3.189-4.034,4.859c-3.018,3.204-6.439,6.613-10.55,9.634c-1.98,1.62-4.225,2.976-6.475,4.45
		c-1.121,0.745-2.345,1.339-3.543,2.011c-1.208,0.653-2.415,1.344-3.705,1.889c-1.277,0.578-2.564,1.16-3.861,1.747
		c-1.327,0.512-2.683,0.983-4.04,1.48c-0.682,0.238-1.357,0.508-2.051,0.721c-0.699,0.199-1.4,0.398-2.103,0.598
		c-1.413,0.372-2.817,0.827-4.265,1.112c-1.449,0.286-2.903,0.573-4.362,0.862c-1.456,0.314-2.95,0.403-4.432,0.596l-2.23,0.252
		c-0.744,0.091-1.495,0.08-2.242,0.125l-4.66,0.178l-4.263-0.172c-0.724-0.043-1.388-0.027-2.16-0.119l-2.289-0.253
		c-1.51-0.196-3.078-0.284-4.525-0.6c-1.459-0.288-2.913-0.576-4.362-0.862c-1.448-0.284-2.851-0.744-4.266-1.108
		c-0.703-0.2-1.404-0.399-2.103-0.598c-0.694-0.213-1.369-0.483-2.051-0.721c-1.357-0.497-2.713-0.968-4.04-1.481
		c-1.297-0.586-2.585-1.168-3.863-1.745c-1.29-0.545-2.497-1.237-3.705-1.89c-1.198-0.672-2.425-1.261-3.544-2.009
		c-2.25-1.474-4.493-2.834-6.476-4.45c-4.11-3.023-7.532-6.432-10.55-9.637c-1.444-1.671-2.787-3.301-4.034-4.861
		c-1.144-1.638-2.229-3.192-3.248-4.652c-0.913-1.53-1.788-2.936-2.541-4.267c-0.755-1.329-1.316-2.628-1.888-3.752
		c-1.181-2.23-1.76-4.155-2.277-5.39c-0.468-1.258-0.718-1.929-0.718-1.929s0.41,0.589,1.179,1.694
		c0.77,1.098,1.803,2.755,3.348,4.699c0.769,0.973,1.541,2.095,2.515,3.217c0.994,1.109,2.007,2.341,3.113,3.631
		c1.186,1.216,2.447,2.509,3.778,3.873c1.415,1.273,2.856,2.645,4.415,4.002c3.211,2.616,6.712,5.392,10.754,7.792
		c1.958,1.292,4.106,2.384,6.262,3.546c0.53,0.306,1.098,0.55,1.664,0.802c0.562,0.259,1.126,0.519,1.693,0.78
		c1.134,0.52,2.262,1.079,3.466,1.491c4.68,1.974,9.76,3.294,14.927,4.422c1.306,0.22,2.617,0.44,3.932,0.661
		c0.661,0.134,1.307,0.185,1.951,0.247l1.938,0.203l1.94,0.211c0.638,0.079,1.399,0.061,2.094,0.096l4.264,0.138l3.867-0.132
		c0.671-0.034,1.345-0.011,2.012-0.09l1.999-0.211l1.996-0.207c0.666-0.057,1.332-0.116,1.986-0.248
		c1.315-0.221,2.626-0.442,3.932-0.662c5.169-1.12,10.247-2.451,14.93-4.418c1.204-0.412,2.332-0.971,3.466-1.492
		c0.568-0.261,1.133-0.52,1.695-0.778c0.566-0.252,1.133-0.496,1.664-0.803c2.156-1.162,4.303-2.258,6.264-3.546
		c4.042-2.401,7.544-5.177,10.755-7.794c1.56-1.358,2.998-2.732,4.415-4.003c1.329-1.365,2.591-2.659,3.776-3.876
		c1.104-1.291,2.12-2.522,3.113-3.632c0.973-1.122,1.736-2.231,2.503-3.203c1.536-1.929,2.591-3.626,3.356-4.719
		C341.659,222.589,342.069,222,342.069,222z"/>
</g>
<g>
	<path d="M195.931,152c0,0,0.251-0.672,0.721-1.931c0.241-0.626,0.539-1.399,0.889-2.307c0.314-0.922,0.818-1.926,1.38-3.063
		c0.573-1.125,1.142-2.437,1.9-3.767c0.754-1.33,1.627-2.738,2.542-4.266c1.02-1.459,2.106-3.012,3.25-4.649
		c1.245-1.562,2.591-3.189,4.034-4.859c3.018-3.204,6.439-6.613,10.55-9.634c1.98-1.62,4.225-2.976,6.475-4.45
		c1.121-0.745,2.345-1.339,3.542-2.011c1.208-0.653,2.415-1.344,3.705-1.889c1.277-0.578,2.564-1.16,3.861-1.747
		c1.327-0.512,2.683-0.983,4.04-1.48c0.682-0.238,1.357-0.508,2.051-0.721c0.699-0.199,1.4-0.398,2.103-0.598
		c1.413-0.372,2.817-0.827,4.265-1.112c1.449-0.286,2.903-0.573,4.362-0.862c1.456-0.314,2.95-0.403,4.432-0.596l2.23-0.252
		c0.744-0.092,1.495-0.08,2.242-0.125l4.66-0.178l4.263,0.172c0.724,0.043,1.388,0.027,2.16,0.119l2.289,0.253
		c1.51,0.196,3.078,0.284,4.525,0.6c1.459,0.288,2.913,0.576,4.362,0.862c1.448,0.283,2.851,0.744,4.266,1.108
		c0.703,0.2,1.404,0.399,2.103,0.598c0.694,0.213,1.369,0.483,2.051,0.721c1.357,0.497,2.713,0.968,4.04,1.481
		c1.297,0.586,2.585,1.168,3.863,1.745c1.29,0.545,2.497,1.237,3.705,1.89c1.198,0.672,2.425,1.261,3.544,2.009
		c2.25,1.474,4.493,2.834,6.476,4.45c4.11,3.022,7.532,6.432,10.551,9.637c1.444,1.671,2.787,3.3,4.034,4.861
		c1.144,1.638,2.229,3.192,3.248,4.652c0.913,1.53,1.788,2.936,2.541,4.267c0.755,1.329,1.316,2.628,1.888,3.752
		c1.181,2.23,1.76,4.155,2.277,5.39c0.468,1.258,0.718,1.929,0.718,1.929s-0.41-0.589-1.179-1.694
		c-0.77-1.098-1.803-2.755-3.348-4.699c-0.769-0.973-1.541-2.095-2.515-3.217c-0.994-1.109-2.007-2.341-3.113-3.631
		c-1.186-1.216-2.447-2.509-3.778-3.873c-1.415-1.273-2.856-2.645-4.415-4.002c-3.211-2.616-6.712-5.392-10.754-7.791
		c-1.958-1.292-4.106-2.384-6.262-3.546c-0.53-0.306-1.098-0.55-1.664-0.802c-0.562-0.259-1.126-0.519-1.693-0.78
		c-1.134-0.52-2.262-1.079-3.466-1.491c-4.68-1.974-9.76-3.293-14.927-4.422c-1.306-0.22-2.617-0.44-3.932-0.661
		c-0.661-0.134-1.307-0.185-1.951-0.247l-1.938-0.203l-1.94-0.211c-0.638-0.079-1.399-0.061-2.094-0.096l-4.264-0.138l-3.867,0.132
		c-0.671,0.034-1.345,0.011-2.012,0.09l-1.999,0.211l-1.996,0.207c-0.666,0.057-1.332,0.116-1.986,0.248
		c-1.315,0.221-2.626,0.442-3.932,0.662c-5.169,1.12-10.247,2.451-14.93,4.418c-1.204,0.412-2.332,0.971-3.466,1.492
		c-0.568,0.261-1.133,0.52-1.695,0.778c-0.566,0.252-1.133,0.496-1.664,0.803c-2.156,1.162-4.303,2.258-6.264,3.546
		c-4.042,2.401-7.544,5.177-10.755,7.794c-1.56,1.358-2.998,2.732-4.415,4.003c-1.33,1.365-2.591,2.659-3.776,3.875
		c-1.104,1.291-2.12,2.522-3.113,3.632c-0.973,1.122-1.736,2.231-2.503,3.203c-1.536,1.929-2.591,3.626-3.356,4.719
		C196.341,151.411,195.931,152,195.931,152z"/>
</g>
<g>
	<path d="M131.898,397.409c0,0,0.296-0.061,0.868-0.18c0.573-0.117,1.429-0.287,2.503-0.561c2.158-0.541,5.347-1.4,9.153-3.046
		c3.807-1.631,8.223-4.093,12.662-7.721c4.45-3.623,8.807-8.46,13.048-14.208c4.289-5.719,8.451-12.37,13.76-19.046
		c2.668-3.32,5.653-6.645,9.184-9.626c3.514-2.987,7.57-5.622,12.036-7.58c4.463-1.974,9.276-3.249,14.193-3.957
		c4.984-0.704,10-0.696,14.949-0.291c9.909,0.824,19.599,3.04,29.069,5.657c9.468,2.647,18.751,5.69,27.822,8.738
		c9.069,3.053,17.887,6.222,26.308,9.351c8.402,3.161,16.461,6.232,24.034,8.64c3.785,1.165,7.46,2.193,10.883,2.744
		c3.383,0.594,6.634,0.634,8.543-0.034c0.22-0.066,0.497-0.198,0.611-0.236l0.58-0.337l0.395-0.24
		c0.514-0.313,1.076-0.711,1.534-1.099c0.933-0.798,1.66-1.687,2.225-2.703c1.149-2.018,1.542-4.657,1.614-7.324
		c0.06-2.677-0.2-5.36-0.441-7.883c-0.216-2.532-0.433-4.924-0.522-7.113c-0.195-4.386,0.3-7.966,1.07-10.243
		c0.376-1.144,0.745-1.984,1.034-2.53c0.286-0.546,0.447-0.816,0.447-0.816l1.103,0.472c0,0-0.067,0.284-0.197,0.835
		c-0.117,0.551-0.269,1.371-0.343,2.445c-0.063,1.076-0.065,2.401,0.098,3.954c0.155,1.555,0.512,3.329,0.969,5.326
		c0.896,4.026,2.675,8.755,3.63,15.116c0.212,1.6,0.372,3.323,0.262,5.185c-0.104,1.855-0.428,3.866-1.193,5.879
		c-0.758,2.009-1.965,3.962-3.468,5.63c-0.765,0.84-1.546,1.575-2.46,2.31l-0.692,0.531l-0.541,0.397
		c-0.644,0.439-1.158,0.743-1.762,1.05c-2.354,1.181-4.75,1.715-7.024,1.956c-2.285,0.238-4.494,0.213-6.665,0.066
		c-4.34-0.33-8.556-1.117-12.771-2.137c-8.427-2.018-16.834-4.938-25.371-8.151c-8.514-3.27-17.095-6.976-25.817-10.618
		c-8.719-3.641-17.616-7.144-26.637-10.081c-9.009-2.923-18.147-5.409-27.164-6.552c-4.5-0.551-8.968-0.786-13.244-0.415
		c-4.327,0.405-8.542,1.307-12.445,2.807c-3.911,1.49-7.512,3.574-10.764,6.069c-3.251,2.498-6.187,5.361-8.885,8.362
		c-5.39,6.023-9.959,12.451-14.687,18.067c-4.686,5.647-9.561,10.487-14.463,14.029c-4.886,3.57-9.689,5.852-13.751,7.266
		c-4.064,1.442-7.372,2.099-9.631,2.507c-1.137,0.209-1.994,0.32-2.573,0.399c-0.579,0.08-0.878,0.122-0.878,0.122L131.898,397.409z
		"/>
</g>
</svg>
